<?xml version="1.0" encoding="utf-8"?>
<!-- Generator: Adobe Illustrator 16.0.0, SVG Export Plug-In . SVG Version: 6.00 Build 0)  -->
<!DOCTYPE svg PUBLIC "-//W3C//DTD SVG 1.1//EN" "http://www.w3.org/Graphics/SVG/1.1/DTD/svg11.dtd">
<svg version="1.1" id="Layer_1" xmlns="http://www.w3.org/2000/svg" xmlns:xlink="http://www.w3.org/1999/xlink" x="0px" y="0px"
	 width="17.469px" height="21.25px" viewBox="0 0 17.469 21.25" enable-background="new 0 0 17.469 21.25" xml:space="preserve">
<path fill="#4D75A3" d="M16.238,11.297c-0.811-0.853-1.891-1.417-3.238-1.693V9.49c0.938-0.38,1.673-0.975,2.206-1.785
	c0.531-0.809,0.798-1.732,0.798-2.77c0-0.895-0.193-1.685-0.579-2.37c-0.386-0.686-0.969-1.233-1.751-1.643
	c-0.723-0.38-1.497-0.63-2.323-0.749c-0.825-0.119-2.039-0.179-3.641-0.179H0v21.263h8.734c1.515,0,2.763-0.133,3.744-0.399
	c0.982-0.267,1.883-0.715,2.704-1.342c0.693-0.524,1.245-1.187,1.656-1.985c0.41-0.8,0.615-1.729,0.615-2.785
	C17.454,13.298,17.048,12.148,16.238,11.297z M10.185,7.234c-0.166,0.352-0.469,0.628-0.908,0.828c-0.4,0.181-0.789,0.281-1.165,0.3
	S7.079,8.391,6.141,8.391H5.452V3.892h0.381c0.977,0,1.712,0.008,2.205,0.022c0.494,0.014,0.921,0.098,1.282,0.25
	c0.382,0.162,0.661,0.424,0.843,0.785c0.181,0.362,0.271,0.714,0.271,1.057C10.435,6.473,10.351,6.882,10.185,7.234z M11.468,16.023
	c-0.23,0.404-0.594,0.711-1.092,0.92c-0.567,0.238-1.124,0.367-1.671,0.387s-1.534,0.027-2.96,0.027H5.452v-5.325h1.011
	c0.977,0,1.756,0.007,2.337,0.021c0.582,0.016,1.038,0.084,1.371,0.207c0.547,0.191,0.957,0.473,1.23,0.844s0.41,0.885,0.41,1.541
	C11.812,15.159,11.697,15.619,11.468,16.023z"/>
</svg>
