<svg xmlns="http://www.w3.org/2000/svg" xmlns:xlink="http://www.w3.org/1999/xlink" preserveAspectRatio="xMidYMid" width="17.469" height="21.25" viewBox="0 0 17.469 21.25">
  <defs>
    <style>
      .cls-1 {
        fill: #fff;
        fill-rule: evenodd;
      }
    </style>
  </defs>
  <path d="M16.238,11.297 C15.427,10.444 14.347,9.880 12.999,9.604 L12.999,9.490 C13.937,9.110 14.672,8.515 15.205,7.705 C15.737,6.896 16.003,5.973 16.003,4.935 C16.003,4.040 15.810,3.250 15.424,2.565 C15.038,1.879 14.455,1.332 13.673,0.922 C12.950,0.542 12.176,0.292 11.350,0.173 C10.525,0.054 9.311,-0.006 7.709,-0.006 L0.000,-0.006 L0.000,21.257 L8.735,21.257 C10.249,21.257 11.497,21.124 12.479,20.857 C13.461,20.591 14.362,20.143 15.183,19.515 C15.876,18.991 16.428,18.329 16.839,17.530 C17.249,16.730 17.454,15.802 17.454,14.745 C17.454,13.298 17.048,12.149 16.238,11.297 ZM10.185,7.234 C10.019,7.586 9.716,7.862 9.277,8.062 C8.876,8.243 8.488,8.343 8.112,8.362 C7.736,8.381 7.079,8.391 6.141,8.391 L5.452,8.391 L5.452,3.892 L5.833,3.892 C6.810,3.892 7.545,3.900 8.038,3.914 C8.532,3.928 8.959,4.012 9.321,4.164 C9.702,4.326 9.982,4.588 10.163,4.949 C10.344,5.311 10.435,5.663 10.435,6.006 C10.435,6.473 10.351,6.882 10.185,7.234 ZM11.468,16.023 C11.238,16.428 10.874,16.735 10.376,16.944 C9.809,17.182 9.252,17.311 8.705,17.330 C8.158,17.349 7.171,17.358 5.745,17.358 L5.452,17.358 L5.452,12.032 L6.463,12.032 C7.440,12.032 8.219,12.039 8.800,12.053 C9.382,12.068 9.838,12.137 10.171,12.260 C10.718,12.451 11.128,12.732 11.402,13.103 C11.675,13.474 11.812,13.988 11.812,14.645 C11.812,15.159 11.697,15.619 11.468,16.023 Z" class="cls-1"/>
</svg>
