<?xml version="1.0" encoding="utf-8"?>
<!-- Generator: Adobe Illustrator 16.0.0, SVG Export Plug-In . SVG Version: 6.00 Build 0)  -->
<!DOCTYPE svg PUBLIC "-//W3C//DTD SVG 1.1//EN" "http://www.w3.org/Graphics/SVG/1.1/DTD/svg11.dtd">
<svg version="1.1" id="Layer_1" xmlns="http://www.w3.org/2000/svg" xmlns:xlink="http://www.w3.org/1999/xlink" x="0px" y="0px"
	 width="190px" height="114px" viewBox="203.18 364.198 190 114" enable-background="new 203.18 364.198 190 114"
	 xml:space="preserve">
<g>
	<path d="M295.846,449.573L295.846,449.573c2.806-2.189,5.396-4.159,7.986-6.349c1.51,0.876,3.236,1.095,4.748,0.657
		c4.964-0.657,9.711-5.473,12.517-10.07c-0.216,1.751-0.216,3.503-0.216,5.254l5.18-1.751c0-1.971,0.216-4.379,0.433-6.786
		c0.862-6.13,7.337-12.478,6.258-8.1c-0.647,4.159-1.079,8.537-1.294,12.915l5.395-1.751c0-2.627,0.216-5.254,0.647-7.662
		c0.863-3.064,3.237-7.224,4.964-7.443c1.079,0-2.806,14.229,4.965,12.041c3.236-1.095,5.826-3.065,7.984-5.692
		c2.59,4.16,9.28-1.094,10.791-3.94c0.432,1.533,1.727,2.408,3.237,2.189c3.237-0.438,6.043-2.408,7.985-5.035l-2.806-2.627
		c-0.647,1.095-1.727,1.97-2.806,2.408c-2.374,0.219,0.647-13.135,1.079-14.886l-5.611,1.751c-0.647,2.408-1.079,4.816-1.295,7.443
		c-0.863,3.284-3.453,8.1-5.396,8.537c-2.158,0.219-0.216-10.726,0.432-14.229l-5.396,1.532c-0.863,3.721-1.295,7.443-1.295,11.164
		c-0.863,1.095-3.885,6.13-5.827,5.691c-1.295-0.219-0.647-3.721-0.647-4.597c0.432-3.721,2.374-10.507-3.885-8.756
		c-2.59,0.875-4.748,2.627-6.475,4.816c-2.373-3.502-7.77,0.219-9.496,2.408c0-0.657,0.216-1.313,0.216-1.97l-5.395,1.97
		c0,0.438,0,0.657-0.217,1.094l-0.216-0.657c0.647,4.378-8.417,21.672-14.459,19.483c2.805-2.189,4.964-4.816,6.689-7.881
		c0.864-2.189,1.511-5.254-0.216-7.225c-1.727-1.97-4.316-1.532-6.259-0.656c-5.827,2.627-8.2,10.508-6.69,16.418
		c-1.727,1.313-3.453,2.846-5.179,3.94c0.216-4.597,0.432-8.756,0.432-11.164l-6.259,1.97c0,1.095,0,2.627,0,4.159
		c-0.863,2.846-2.374,5.911-4.964,7.443c-2.59,1.751-3.669-1.095-3.021-3.503c1.511-6.567,7.338-11.602,13.813-12.696l-4.748-5.035
		c-6.475,2.627-11.654,7.881-14.028,14.667c-1.079,3.722-1.727,8.976,1.511,11.821c3.453,2.846,8.849-0.219,11.223-3.284
		c-0.216,2.627-0.432,5.911-0.647,8.318c-4.748,2.189-9.496,4.816-14.028,7.443c-1.942,1.313-0.432,5.473,0,7.005
		c1.079,3.064,3.237,6.349,6.475,7.443c9.496,3.064,11.438-12.916,12.518-18.826c23.524-9.852,58.703-19.045,83.306-19.702
		c0.216-2.407,0.432-4.597,0.647-7.005c-28.488,3.503-56.328,10.945-83.09,21.672C295.63,452.419,295.63,449.573,295.846,449.573z
		 M307.5,429.433c1.727-3.503,3.669-2.846,3.236-0.876c-0.862,2.189-2.374,4.159-4.316,5.473
		C306.42,432.498,306.853,430.966,307.5,429.433C309.227,425.93,306.853,430.966,307.5,429.433z M288.076,466.647
		c-0.432,1.533-1.079,6.13-3.453,5.911c-2.59-0.219-3.453-4.598-3.669-6.786c2.374-1.532,4.101-3.064,8.417-4.378v-0.876h-0.432
		v0.438C288.724,463.145,288.292,465.334,288.076,466.647C286.997,470.807,288.292,465.334,288.076,466.647z"/>
	<path d="M269.516,448.26c-1.943,0.219-3.237,1.97-3.237,3.94c-0.432,1.751,0.863,3.721,2.589,3.94
		c1.942-0.22,3.237-1.971,3.237-3.94C272.537,450.448,271.242,448.478,269.516,448.26
		C267.573,448.478,271.242,448.478,269.516,448.26z"/>
	<path d="M339.225,364.198L339.225,364.198c-24.819,2.189-49.422,7.443-73.163,14.667c-12.085,3.721-23.956,8.1-35.394,13.354
		c-5.18,2.408-10.144,5.035-14.892,8.1c-2.374,1.532-4.748,3.064-6.906,4.816c-2.374,1.751-5.18,4.378-5.611,7.442
		c-1.511,10.727,18.992,3.503,23.093,1.971l-4.101-3.94c-3.453,1.313-7.338,2.627-11.007,2.846
		c-2.158,0.219-2.806-0.876-1.295-2.408c2.374-2.626,5.827-4.597,8.849-6.348c3.237-2.189,6.906-4.159,10.359-5.691
		c0.216,14.229-0.863,28.677-3.453,42.687c-0.216,1.532-1.511,10.727-4.748,9.851c-1.511-0.438-1.942-3.502-2.374-4.815
		c-0.432-3.722-0.432-7.225-0.216-10.727l-6.906,2.408c0,4.378,0.647,8.756,2.374,12.915c0.863,2.408,2.59,4.378,4.964,5.691
		c7.338,2.846,10.791-5.473,12.086-11.164c3.453-12.478,5.396-33.055,5.396-49.911c31.509-13.572,76.831-24.08,102.515-24.737
		C338.794,368.577,339.009,366.387,339.225,364.198z"/>
	<path d="M348.29,404.259c-8.417,1.095-16.833,2.408-25.035,4.378l-0.863,5.253c7.985-2.189,18.776-4.815,25.251-5.91
		L348.29,404.259z"/>
	<path d="M386.274,384.776c-1.511,5.691-3.021,13.353-4.101,20.358l3.885,3.94c1.727-8.975,4.101-17.951,7.122-26.707
		C390.806,383.244,388.432,384.119,386.274,384.776C384.763,390.686,388.432,384.119,386.274,384.776z"/>
	<path d="M383.037,413.672c-1.727,0.219-3.021,1.751-3.021,3.503c-0.432,1.532,0.647,3.283,2.374,3.502
		c1.727-0.219,3.021-1.751,3.021-3.502C385.842,415.423,384.763,413.89,383.037,413.672
		C381.31,413.89,384.547,413.89,383.037,413.672z"/>
	<path d="M373.541,383.681c-2.59,0.219,0.432-13.135,0.863-14.886l-5.396,1.97c-0.647,2.408-1.079,4.816-1.295,7.224
		c-0.863,3.283-3.453,8.1-5.396,8.537c-2.374,0.219-0.216-10.726,0.432-14.01l-5.18,1.751c-0.863,3.065-1.295,6.348-1.511,9.632
		c-1.511,2.845-3.669,6.129-5.396,6.567c-2.374,0.219-0.863-10.945-0.216-14.448l-5.396,1.751c0,0.657-0.216,1.532-0.216,2.627
		c-0.863,5.692-2.59,12.916-4.748,13.354c-0.863,0-1.294-0.875-1.294-2.627c0-0.219,0-0.438,0-0.875L334.261,392v0.656h0.432V392
		c0,2.408-1.511,4.597-2.806,4.815c-1.726,0.219-1.078-5.035-1.078-5.91l-4.964,1.751h0.215l0,0h-0.215l0,0c0,0.219,0,0.219,0,0.438
		c-1.943,6.349-4.316,8.318-5.611,8.1c-0.864-0.438-1.512-1.313-1.296-2.189c-0.431-2.627,1.727-9.194,4.964-9.632
		c0.647,0,1.295,0.438,1.295,1.313l4.965-1.751c-0.433-3.284-3.886-5.473-6.907-4.378c-4.1,0.876-7.554,5.911-8.849,10.945
		c-0.862,1.97-7.77,14.886-11.007,10.07c-1.295-1.751,0-4.816,0.864-6.348c1.726-3.065,4.316-5.254,7.769-5.911l-3.885-3.502
		c-2.806,1.095-5.396,3.065-7.122,5.691c-3.237-3.283-9.496-1.751-12.085,4.378l3.669,3.284c0.432-1.532,3.669-6.787,5.396-3.721
		c1.511,2.626-1.295,11.164-4.748,10.945c-0.863,0-1.727-1.313-1.079-3.064c-1.727,0.438-3.021,0.657-4.748,1.095
		c-4.316,7.224-9.496,8.318-11.223,6.567c4.316-1.97,12.086-10.727,5.827-14.667c-2.59-1.751-6.043-0.438-8.201,1.532
		c-2.806,2.846-4.316,7.005-3.885,10.945c-1.079,0.438-2.158,0.438-3.453,0.657c-0.215-2.408-2.158-4.597-4.532-3.502
		c-2.806,1.532-2.375,5.692,0,7.224c-0.432,1.532-2.806,7.005-5.396,5.035c-1.079-0.657-0.863-2.627-0.863-3.722
		c0.215-4.378,3.021-8.975,7.338-10.726l-3.669-3.503c-6.906,3.722-10.359,11.603-8.417,19.264
		c-2.806,5.692-6.906,12.26-6.906,5.255c0.647-11.822,2.374-23.424,5.18-34.807c-2.374,0.875-4.748,1.751-7.122,2.627
		c-1.942,10.946-3.453,22.329-3.021,33.493c0.216,2.627,0.432,9.413,4.532,8.757c1.942-0.219,3.453-1.97,4.748-3.284
		c2.158-2.407,3.885-5.034,5.395-7.88c5.828,3.064,11.439-4.816,12.518-9.851c1.51,0,3.237-0.219,4.748-0.876
		c3.885,7.224,14.244,2.189,17.697-3.284c4.101,3.94,8.849,0.876,11.439-3.284c5.179,4.597,12.086-2.626,14.459-7.005
		c0.864,2.408,3.453,3.94,5.827,3.284c3.022-0.876,5.611-3.065,6.906-5.691c2.158,3.283,6.69,1.97,9.496-2.408
		c0.647,0.876,1.943,1.313,3.021,1.095c2.806-0.657,5.18-2.627,6.259-5.473c0.863,1.751,3.237,2.627,4.964,1.533
		c2.59-1.095,4.964-2.846,6.475-5.035c2.374,4.597,9.28-0.875,11.007-3.502c0.432,1.532,1.727,2.408,3.237,2.189
		c3.237-0.438,6.043-2.408,7.985-5.035l-2.806-2.627C375.699,382.368,374.62,383.244,373.541,383.681
		C372.461,383.901,374.62,383.244,373.541,383.681z M275.774,406.229c0.647-1.094,2.806-3.721,3.237-1.094
		c0.432,2.408-2.59,4.816-4.316,5.91C274.695,409.294,275.127,407.761,275.774,406.229
		C277.933,402.07,275.127,407.761,275.774,406.229z"/>
</g>
</svg>
