<?xml version="1.0" encoding="utf-8"?>
<!-- Generator: Adobe Illustrator 16.0.0, SVG Export Plug-In . SVG Version: 6.00 Build 0)  -->
<!DOCTYPE svg PUBLIC "-//W3C//DTD SVG 1.1//EN" "http://www.w3.org/Graphics/SVG/1.1/DTD/svg11.dtd">
<svg version="1.1" id="Layer_1" xmlns="http://www.w3.org/2000/svg" xmlns:xlink="http://www.w3.org/1999/xlink" x="0px" y="0px"
	 width="27px" height="27px" viewBox="0 0 27 27" enable-background="new 0 0 27 27" xml:space="preserve">
<g>
	<path  d="M13.5,0C6.044,0,0,6.044,0,13.5C0,20.956,6.044,27,13.5,27S27,20.956,27,13.5C27,6.044,20.955,0,13.5,0z
		 M13.5,24C7.701,24,3,19.299,3,13.5C3,7.701,7.701,3,13.5,3C19.299,3,24,7.701,24,13.5C24,19.299,19.299,24,13.5,24z M15,8h-3v4H8
		v3h4v4h3v-4h4v-3h-4V8z"/>
</g>
</svg>
