<?xml version="1.0" encoding="utf-8"?>
<!-- Generator: Adobe Illustrator 16.0.0, SVG Export Plug-In . SVG Version: 6.00 Build 0)  -->
<!DOCTYPE svg PUBLIC "-//W3C//DTD SVG 1.1//EN" "http://www.w3.org/Graphics/SVG/1.1/DTD/svg11.dtd">
<svg version="1.1" id="Layer_1" xmlns="http://www.w3.org/2000/svg" xmlns:xlink="http://www.w3.org/1999/xlink" x="0px" y="0px"
	 width="30px" height="32px" viewBox="0 0 30 32" enable-background="new 0 0 30 32" xml:space="preserve">
<g>
	<path d="M13,15.5c0-1.38-1.12-2.5-2.5-2.5C9.119,13,8,14.119,8,15.5C8,16.88,9.119,18,10.5,18
		C11.88,18,13,16.88,13,15.5z M15,24c3.652,0,5-3,5-3H10C10,21,11.893,24,15,24z M19.5,13c-1.381,0-2.5,1.12-2.5,2.5
		c0,1.381,1.119,2.5,2.5,2.5s2.5-1.12,2.5-2.5C22,14.119,20.881,13,19.5,13z M21.3,3.4L23,0l-5,2l-1-2l-2,2C6.716,2,0,8.715,0,17
		c0,8.284,6.716,15,15,15s15-6.717,15-15C30,10.968,26.433,5.783,21.3,3.4z M15,29C8.373,29,3,23.627,3,17S8.373,5,15,5
		c6.627,0,12,5.373,12,12S21.627,29,15,29z"/>
</g>
</svg>
