<?xml version="1.0" encoding="utf-8"?>
<!-- Generator: Adobe Illustrator 16.0.0, SVG Export Plug-In . SVG Version: 6.00 Build 0)  -->
<!DOCTYPE svg PUBLIC "-//W3C//DTD SVG 1.1//EN" "http://www.w3.org/Graphics/SVG/1.1/DTD/svg11.dtd">
<svg version="1.1" id="Layer_1" xmlns="http://www.w3.org/2000/svg" xmlns:xlink="http://www.w3.org/1999/xlink" x="0px" y="0px"
	 width="59px" height="59px" viewBox="0 0 59 59" enable-background="new 0 0 59 59" xml:space="preserve">
<linearGradient id="SVGID_1_" gradientUnits="userSpaceOnUse" x1="55.0518" y1="44.2529" x2="3.9486" y2="14.7485">
	<stop  offset="0" style="stop-color:#FFFFFF"/>
	<stop  offset="0.0661" style="stop-color:#F9F7FB"/>
	<stop  offset="0.1346" style="stop-color:#ECE9F4"/>
	<stop  offset="0.2042" style="stop-color:#DAD4EA"/>
	<stop  offset="0.2746" style="stop-color:#C2B8DB"/>
	<stop  offset="0.3456" style="stop-color:#A797C8"/>
	<stop  offset="0.4162" style="stop-color:#8A75B5"/>
	<stop  offset="0.4305" style="stop-color:#846EB1"/>
</linearGradient>
<path fill-rule="evenodd" clip-rule="evenodd" fill="url(#SVGID_1_)" d="M29.5,59C13.207,59,0,45.793,0,29.5
	C0,13.208,13.207,0,29.5,0C45.792,0,59,13.208,59,29.5C59,45.793,45.792,59,29.5,59z M29.5,5C15.969,5,5,15.969,5,29.5
	C5,43.031,15.969,54,29.5,54S54,43.031,54,29.5c0-4.573-1.276-8.839-3.458-12.502L25.375,42.306l-0.037-0.038l-0.303,0.304
	L14.429,31.965l3.536-3.536l7.028,7.028L47.455,12.87C42.98,8.041,36.603,5,29.5,5z"/>
</svg>
