<?xml version="1.0" encoding="utf-8"?>
<!-- Generator: Adobe Illustrator 16.0.0, SVG Export Plug-In . SVG Version: 6.00 Build 0)  -->
<!DOCTYPE svg PUBLIC "-//W3C//DTD SVG 1.1//EN" "http://www.w3.org/Graphics/SVG/1.1/DTD/svg11.dtd">
<svg version="1.1" id="Layer_1" xmlns="http://www.w3.org/2000/svg" xmlns:xlink="http://www.w3.org/1999/xlink" x="0px" y="0px"
	 viewBox="0 0 59 59" enable-background="new 0 0 59 59" xml:space="preserve">
<path fill-rule="evenodd" clip-rule="evenodd" fill="#31b777" d="M29.5,59C13.207,59,0,45.793,0,29.5C0,13.208,13.207,0,29.5,0
	C45.792,0,59,13.208,59,29.5C59,45.793,45.792,59,29.5,59z M29.5,5C15.969,5,5,15.969,5,29.5C5,43.031,15.969,54,29.5,54
	S54,43.031,54,29.5c0-4.573-1.276-8.839-3.458-12.502L25.375,42.306l-0.037-0.038l-0.303,0.304L14.429,31.965l3.536-3.536
	l7.028,7.028L47.455,12.87C42.98,8.041,36.603,5,29.5,5z"/>
</svg>
