<?xml version="1.0" encoding="utf-8"?><!DOCTYPE svg PUBLIC "-//W3C//DTD SVG 1.1//EN" "http://www.w3.org/Graphics/SVG/1.1/DTD/svg11.dtd"><svg xmlns="http://www.w3.org/2000/svg" xmlns:xlink="http://www.w3.org/1999/xlink"><symbol viewBox="0 0 30 32" id="smile-face"><path d="M13 15.5a2.5 2.5 0 1 0-5.002.002A2.5 2.5 0 0 0 13 15.5zm2 8.5c3.652 0 5-3 5-3H10s1.893 3 5 3zm4.5-11a2.5 2.5 0 1 0 0 5 2.5 2.5 0 0 0 0-5zm1.8-9.6L23 0l-5 2-1-2-2 2C6.716 2 0 8.715 0 17c0 8.284 6.716 15 15 15s15-6.717 15-15c0-6.032-3.567-11.217-8.7-13.6zM15 29C8.373 29 3 23.627 3 17S8.373 5 15 5s12 5.373 12 12-5.373 12-12 12z"/></symbol></svg>