<?xml version="1.0" encoding="utf-8"?><!DOCTYPE svg PUBLIC "-//W3C//DTD SVG 1.1//EN" "http://www.w3.org/Graphics/SVG/1.1/DTD/svg11.dtd"><svg xmlns="http://www.w3.org/2000/svg" xmlns:xlink="http://www.w3.org/1999/xlink"><symbol viewBox="0 0 28 28" id="cubes"><path d="M16 28h12V16H16v12zm3-9h6v6h-6v-6zM0 28h12V16H0v12zm3-9h6v6H3v-6zm-3-7h12V0H0v12zm3-9h6v6H3V3zm13-3v12h12V0H16zm9 9h-6V3h6v6z"/></symbol><symbol viewBox="203.18 364.198 190 114" id="logo"><path d="M295.846 449.573c2.806-2.19 5.396-4.16 7.986-6.35 1.51.877 3.236 1.096 4.748.658 4.964-.656 9.71-5.472 12.517-10.07-.216 1.752-.216 3.504-.216 5.255l5.18-1.75c0-1.972.217-4.38.434-6.787.862-6.13 7.337-12.478 6.258-8.1a124.4 124.4 0 0 0-1.294 12.915l5.395-1.75c0-2.628.216-5.255.647-7.663.863-3.064 3.237-7.224 4.964-7.443 1.08 0-2.806 14.23 4.965 12.04 3.235-1.094 5.825-3.064 7.983-5.69 2.59 4.16 9.28-1.095 10.79-3.94.433 1.532 1.728 2.407 3.238 2.188 3.238-.438 6.044-2.408 7.986-5.035l-2.806-2.627c-.647 1.095-1.727 1.97-2.806 2.408-2.374.22.647-13.134 1.08-14.885l-5.612 1.75a41.244 41.244 0 0 0-1.295 7.444c-.863 3.283-3.453 8.1-5.396 8.536-2.157.22-.215-10.726.433-14.23l-5.396 1.533a49.274 49.274 0 0 0-1.295 11.163c-.863 1.095-3.885 6.13-5.827 5.69-1.295-.218-.647-3.72-.647-4.596.432-3.72 2.374-10.507-3.885-8.756-2.59.876-4.748 2.628-6.475 4.817-2.373-3.502-7.77.22-9.496 2.408 0-.657.216-1.313.216-1.97l-5.395 1.97c0 .438 0 .657-.217 1.094l-.216-.658c.647 4.378-8.417 21.672-14.46 19.483 2.806-2.19 4.965-4.816 6.69-7.88.864-2.19 1.51-5.255-.216-7.226-1.727-1.97-4.316-1.533-6.26-.657-5.826 2.627-8.2 10.508-6.69 16.418-1.726 1.314-3.452 2.847-5.178 3.94.216-4.596.432-8.755.432-11.163l-6.26 1.97v4.16c-.862 2.845-2.373 5.91-4.963 7.442-2.59 1.75-3.67-1.096-3.02-3.504 1.51-6.567 7.337-11.602 13.812-12.696l-4.748-5.035c-6.476 2.627-11.655 7.88-14.03 14.667-1.078 3.722-1.726 8.976 1.512 11.82 3.453 2.847 8.85-.218 11.223-3.283-.216 2.626-.432 5.91-.647 8.317-4.748 2.19-9.496 4.816-14.028 7.443-1.942 1.313-.432 5.473 0 7.005 1.08 3.064 3.237 6.35 6.475 7.443 9.496 3.064 11.438-12.916 12.518-18.826 23.524-9.852 58.703-19.045 83.306-19.702.215-2.407.43-4.597.646-7.005-28.488 3.503-56.328 10.945-83.09 21.672.214-1.528.214-4.374.43-4.374zm11.654-20.14c1.727-3.503 3.67-2.846 3.236-.876-.862 2.19-2.374 4.16-4.316 5.473 0-1.532.433-3.064 1.08-4.597 1.727-3.503-.647 1.533 0 0zm-19.424 37.214c-.432 1.533-1.08 6.13-3.453 5.91-2.59-.218-3.453-4.597-3.67-6.785 2.375-1.532 4.102-3.064 8.418-4.378v-.876h-.43v.438c-.216 2.19-.648 4.378-.864 5.69-1.08 4.16.216-1.312 0 0zM269.516 448.26c-1.943.22-3.237 1.97-3.237 3.94-.433 1.75.862 3.72 2.588 3.94 1.942-.22 3.237-1.97 3.237-3.94.432-1.752-.863-3.722-2.59-3.94-1.942.218 1.727.218 0 0zM339.225 364.198c-24.82 2.19-49.422 7.443-73.163 14.667-12.085 3.72-23.956 8.1-35.394 13.354-5.18 2.407-10.144 5.034-14.892 8.1-2.374 1.53-4.748 3.063-6.906 4.815-2.374 1.75-5.18 4.378-5.61 7.442-1.512 10.727 18.99 3.503 23.092 1.97l-4.1-3.94c-3.454 1.314-7.34 2.628-11.008 2.847-2.158.22-2.806-.876-1.295-2.408 2.373-2.626 5.826-4.597 8.848-6.348 3.237-2.19 6.906-4.16 10.36-5.69.215 14.228-.864 28.676-3.454 42.686-.216 1.532-1.51 10.727-4.748 9.85-1.51-.437-1.942-3.5-2.374-4.814-.432-3.722-.432-7.225-.216-10.727l-6.906 2.408c0 4.38.647 8.757 2.374 12.916.863 2.408 2.59 4.378 4.964 5.69 7.338 2.847 10.79-5.472 12.086-11.163 3.453-12.478 5.396-33.055 5.396-49.91 31.51-13.573 76.83-24.08 102.515-24.738 0-2.628.214-4.818.43-7.007zM348.29 404.26c-8.417 1.094-16.833 2.407-25.035 4.377l-.863 5.253c7.985-2.19 18.776-4.815 25.25-5.91l.648-3.72zM386.274 384.776c-1.51 5.69-3.02 13.353-4.1 20.358l3.884 3.94c1.727-8.975 4.1-17.95 7.122-26.707-2.374.877-4.748 1.752-6.906 2.41-1.51 5.91 2.158-.658 0 0zM383.037 413.672c-1.727.22-3.02 1.75-3.02 3.503-.433 1.532.646 3.283 2.373 3.502 1.727-.22 3.02-1.75 3.02-3.502.432-1.752-.647-3.285-2.373-3.503-1.727.218 1.51.218 0 0z"/><path d="M373.54 383.68c-2.59.22.433-13.134.864-14.885l-5.396 1.97a42.4 42.4 0 0 0-1.295 7.224c-.863 3.282-3.453 8.1-5.396 8.536-2.374.22-.216-10.726.432-14.01l-5.18 1.75c-.864 3.066-1.296 6.35-1.512 9.633-1.51 2.844-3.67 6.128-5.396 6.566-2.374.22-.863-10.945-.216-14.448l-5.396 1.75c0 .658-.216 1.533-.216 2.628-.863 5.692-2.59 12.916-4.748 13.354-.863 0-1.294-.875-1.294-2.627v-.875l-4.53 1.752v.656h.43V392c0 2.408-1.51 4.597-2.805 4.815-1.726.22-1.078-5.035-1.078-5.91l-4.965 1.75h.215-.215v.44c-1.943 6.348-4.316 8.317-5.61 8.1-.865-.44-1.513-1.314-1.297-2.19-.43-2.627 1.727-9.194 4.964-9.632.647 0 1.295.438 1.295 1.313l4.965-1.75c-.433-3.285-3.886-5.474-6.907-4.38-4.1.877-7.554 5.912-8.85 10.946-.86 1.97-7.77 14.886-11.006 10.07-1.296-1.75 0-4.816.863-6.348 1.726-3.065 4.316-5.254 7.77-5.91l-3.886-3.503c-2.806 1.096-5.396 3.066-7.122 5.692-3.237-3.283-9.496-1.75-12.085 4.378l3.67 3.284c.43-1.532 3.668-6.787 5.395-3.72 1.51 2.625-1.295 11.163-4.748 10.944-.863 0-1.727-1.313-1.08-3.064-1.726.438-3.02.657-4.747 1.095-4.316 7.223-9.496 8.317-11.223 6.566 4.316-1.97 12.086-10.727 5.827-14.667-2.59-1.752-6.043-.44-8.2 1.53-2.807 2.847-4.317 7.006-3.886 10.946-1.08.438-2.158.438-3.453.657-.215-2.408-2.158-4.597-4.532-3.502-2.806 1.533-2.375 5.693 0 7.225-.432 1.532-2.806 7.005-5.396 5.035-1.08-.657-.863-2.627-.863-3.722.215-4.378 3.02-8.975 7.338-10.726l-3.67-3.503c-6.905 3.72-10.358 11.602-8.416 19.263-2.806 5.692-6.906 12.26-6.906 5.255a188.033 188.033 0 0 1 5.18-34.807l-7.122 2.628c-1.942 10.946-3.453 22.33-3.02 33.493.215 2.628.43 9.414 4.53 8.758 1.943-.22 3.454-1.97 4.75-3.284 2.157-2.407 3.884-5.034 5.394-7.88 5.828 3.064 11.44-4.816 12.518-9.85 1.51 0 3.237-.22 4.748-.877 3.885 7.224 14.244 2.19 17.697-3.284 4.1 3.94 8.85.876 11.44-3.284 5.178 4.596 12.085-2.627 14.458-7.006.864 2.408 3.453 3.94 5.827 3.284 3.022-.876 5.61-3.065 6.906-5.69 2.158 3.282 6.69 1.97 9.496-2.41.647.877 1.943 1.314 3.02 1.096a8.796 8.796 0 0 0 6.26-5.473c.863 1.752 3.237 2.628 4.964 1.534 2.59-1.095 4.964-2.846 6.475-5.035 2.375 4.596 9.28-.876 11.008-3.503.432 1.532 1.727 2.408 3.237 2.19 3.237-.44 6.043-2.41 7.985-5.036l-2.806-2.626c-1.295.654-2.374 1.53-3.453 1.967-1.08.22 1.08-.436 0 0zm-97.766 22.55c.647-1.095 2.806-3.722 3.237-1.095.433 2.408-2.59 4.816-4.315 5.91 0-1.75.432-3.284 1.08-4.816 2.158-4.16-.648 1.53 0 0z"/></symbol><symbol viewBox="0 0 27 27" id="round-minus"><path d="M13.5 0C6.044 0 0 6.043 0 13.5 0 20.955 6.044 27 13.5 27 20.955 27 27 20.955 27 13.5 27 6.043 20.955 0 13.5 0zm0 24C7.7 24 3 19.3 3 13.5S7.7 3 13.5 3 24 7.7 24 13.5 19.3 24 13.5 24zM8 15h11v-3H8v3z"/></symbol><symbol viewBox="0 0 27 27" id="round-pluse"><path d="M13.5 0C6.044 0 0 6.044 0 13.5S6.044 27 13.5 27 27 20.956 27 13.5 20.955 0 13.5 0zm0 24C7.7 24 3 19.3 3 13.5S7.7 3 13.5 3 24 7.7 24 13.5 19.3 24 13.5 24zM15 8h-3v4H8v3h4v4h3v-4h4v-3h-4V8z"/></symbol><symbol viewBox="0 0 30 32" id="smile-face"><path d="M13 15.5a2.5 2.5 0 1 0-5.002.002A2.5 2.5 0 0 0 13 15.5zm2 8.5c3.652 0 5-3 5-3H10s1.893 3 5 3zm4.5-11a2.5 2.5 0 1 0 0 5 2.5 2.5 0 0 0 0-5zm1.8-9.6L23 0l-5 2-1-2-2 2C6.716 2 0 8.715 0 17c0 8.284 6.716 15 15 15s15-6.717 15-15c0-6.032-3.567-11.217-8.7-13.6zM15 29C8.373 29 3 23.627 3 17S8.373 5 15 5s12 5.373 12 12-5.373 12-12 12z"/></symbol><symbol viewBox="0 0 19.997 19" id="star"><path fill-rule="evenodd" clip-rule="evenodd" d="M10 0l3.294 5.97 6.703 1.287-4.666 4.977L16.18 19l-6.18-2.896L3.82 19l.848-6.766L0 7.257 6.703 5.97 10 0"/><path fill-rule="evenodd" clip-rule="evenodd" fill="#FFF" d="M10 3.687l2.14 3.77 4.36.814-3.035 3.146.55 4.27L10 13.86l-4.02 1.827.55-4.27L3.5 8.27l4.356-.812L10 3.688"/></symbol><symbol viewBox="0 0 59 59" id="stateBook-no"><linearGradient id="ga" gradientUnits="userSpaceOnUse" x1="55.052" y1="44.253" x2="3.949" y2="14.748"><stop offset="0" stop-color="#FFF"/><stop offset=".066" stop-color="#f9f7fb"/><stop offset=".135" stop-color="#ece9f4"/><stop offset=".204" stop-color="#dad4ea"/><stop offset=".275" stop-color="#c2b8db"/><stop offset=".346" stop-color="#a797c8"/><stop offset=".416" stop-color="#8a75b5"/><stop offset=".43" stop-color="#846eb1"/></linearGradient><path fill-rule="evenodd" clip-rule="evenodd" fill="url(#ga)" d="M29.5 59C13.207 59 0 45.793 0 29.5 0 13.208 13.207 0 29.5 0 45.792 0 59 13.208 59 29.5 59 45.793 45.792 59 29.5 59zm0-54C15.97 5 5 15.97 5 29.5S15.97 54 29.5 54 54 43.03 54 29.5c0-4.573-1.276-8.84-3.458-12.502L25.375 42.306l-.037-.038-.303.304L14.43 31.965l3.535-3.536 7.028 7.027L47.455 12.87C42.98 8.04 36.603 5 29.5 5z"/></symbol><symbol viewBox="0 0 59 59" id="stateBook-yes"><path fill-rule="evenodd" clip-rule="evenodd" fill="#31b777" d="M29.5 59C13.207 59 0 45.793 0 29.5 0 13.208 13.207 0 29.5 0 45.792 0 59 13.208 59 29.5 59 45.793 45.792 59 29.5 59zm0-54C15.97 5 5 15.97 5 29.5S15.97 54 29.5 54 54 43.03 54 29.5c0-4.573-1.276-8.84-3.458-12.502L25.375 42.306l-.037-.038-.303.304L14.43 31.965l3.535-3.536 7.028 7.027L47.455 12.87C42.98 8.04 36.603 5 29.5 5z"/></symbol></svg>