<svg xmlns="http://www.w3.org/2000/svg" xmlns:xlink="http://www.w3.org/1999/xlink" preserveAspectRatio="xMidYMid" width="19.938" height="27.438" viewBox="0 0 19.938 27.438">
  <defs>
    <style>
      .cls-1 {
        fill: #464646;
        fill-rule: evenodd;
      }
    </style>
  </defs>
  <path d="M19.502,25.598 L19.498,25.600 C19.499,25.603 17.475,26.794 17.475,26.794 L13.233,19.629 L15.257,18.432 C15.695,18.176 16.259,18.314 16.520,18.755 C16.522,18.757 19.826,24.324 19.826,24.324 L19.824,24.329 C20.073,24.753 19.966,25.324 19.502,25.598 ZM3.479,17.395 C-2.477,7.052 0.706,2.487 1.830,1.646 L6.171,8.966 C5.125,9.583 5.627,10.973 6.249,12.332 C6.259,12.397 9.267,17.455 9.293,17.472 C10.848,19.578 11.691,20.546 12.690,19.958 L16.921,27.104 C15.724,27.842 9.753,28.295 3.479,17.395 ZM8.748,7.444 L8.748,7.448 C8.747,7.451 6.724,8.640 6.724,8.640 L2.388,1.317 L4.412,0.119 C4.849,-0.136 5.414,-0.000 5.675,0.443 C5.677,0.445 9.075,6.173 9.075,6.173 L9.074,6.179 C9.322,6.600 9.213,7.169 8.748,7.444 Z" class="cls-1"/>
</svg>
